<svg version="1.1" id="Layer_1" xmlns="http://www.w3.org/2000/svg" xmlns:xlink="http://www.w3.org/1999/xlink" x="0px" y="0px"
	 width="100%" viewBox="0 0 598 601" enable-background="new 0 0 598 601" xml:space="preserve">
<path fill="#FFFFFF" opacity="1.000000" stroke="none" 
	d="
M286.000000,602.000000 
	C191.022278,602.000000 96.044563,602.000000 1.033423,602.000000 
	C1.033423,401.735931 1.033423,201.471878 1.033423,1.103903 
	C200.217255,1.103903 399.434601,1.103903 599.000000,1.103903 
	C599.000000,112.690506 599.000000,224.381363 598.597168,336.471924 
	C597.812927,336.033691 597.134644,335.209412 597.095520,334.355865 
	C596.665588,324.989624 596.377686,315.616882 595.945801,306.250763 
	C595.848816,304.147400 595.343323,302.062836 595.027710,299.510956 
	C593.703369,287.061951 592.779907,275.010529 590.972229,263.093231 
	C586.354797,232.652359 577.595032,203.313919 565.302124,175.142166 
	C555.880737,153.551117 544.294861,133.177261 529.544189,114.558388 
	C517.425049,99.261116 504.269836,85.185905 488.722839,72.880936 
	C455.606262,48.268742 419.453674,30.959612 379.508667,20.270649 
	C379.061340,24.884504 379.132935,28.085142 378.388916,31.083376 
	C376.134338,40.168819 373.850464,49.266102 371.040741,58.189617 
	C367.845337,68.338280 364.636688,78.550972 360.399689,88.285744 
	C355.415100,99.738205 349.566833,110.840332 343.634735,121.847336 
	C338.109711,132.098999 332.036743,142.058182 326.106262,152.087708 
	C319.971436,162.462753 313.920044,172.896088 307.456085,183.064835 
	C301.627991,192.233215 295.399078,201.153976 289.154999,210.049179 
	C278.059235,225.855927 266.836487,241.573730 255.630646,257.302948 
	C249.789871,265.501434 243.871826,273.644867 237.583130,281.858154 
	C215.010712,278.187622 192.731964,277.444763 170.667618,279.047150 
	C170.667618,289.813690 170.607193,300.237885 170.681717,310.661133 
	C170.794388,326.423828 171.001099,342.185883 170.849060,358.092651 
	C169.242889,359.695587 168.068344,361.276459 166.645721,362.588287 
	C163.172745,365.790710 159.584930,368.868683 155.955154,371.535583 
	C155.861740,329.597748 155.607483,288.118530 156.030319,246.646225 
	C156.133179,236.557083 153.875702,227.651611 148.891571,219.168701 
	C147.713318,217.163315 146.545120,215.151230 145.325241,213.171234 
	C121.690788,174.809708 79.104561,166.130951 43.983067,175.917038 
	C43.936916,176.858353 43.846287,177.844666 43.846218,178.830963 
	C43.839748,273.111694 43.828728,367.392456 43.910580,461.673126 
	C43.912491,463.877869 44.638805,466.230835 45.572510,468.264282 
	C74.266449,530.756104 150.280243,575.301575 199.034546,580.629456 
	C205.875626,583.413147 212.567963,586.122498 219.439621,588.253601 
	C240.037430,594.641663 261.245148,597.875000 282.643402,600.073669 
	C283.815857,600.194153 284.883545,601.334412 286.000000,602.000000 
z"/>
<path fill="#E2E2E2" opacity="1.000000" stroke="none" 
	d="
M489.028595,73.037628 
	C504.269836,85.185905 517.425049,99.261116 529.544189,114.558388 
	C544.294861,133.177261 555.880737,153.551117 565.302124,175.142166 
	C577.595032,203.313919 586.354797,232.652359 590.972229,263.093231 
	C592.779907,275.010529 593.703369,287.061951 594.752686,299.733459 
	C589.572144,311.211395 584.997559,322.173584 579.675537,332.760040 
	C573.934021,344.181000 567.290344,355.145233 561.402344,366.496490 
	C551.101990,386.354095 538.219421,404.450592 524.533142,422.049622 
	C520.123474,427.720032 516.154541,433.733215 511.580383,439.674988 
	C476.230835,435.882172 448.407166,461.070618 444.730133,487.710205 
	C443.461670,496.899872 445.096588,506.490326 445.066986,516.014404 
	C440.828491,520.381775 436.928253,524.632385 432.558319,528.853760 
	C424.264282,528.825806 416.439972,528.842041 408.615692,528.823303 
	C403.185486,528.810303 399.051819,525.349182 399.053101,520.871643 
	C399.054352,516.533569 402.878571,513.529480 408.486542,513.516479 
	C416.602905,513.497559 424.719330,513.511597 432.825134,513.511597 
	C432.825134,503.911652 432.825134,494.860565 432.825134,485.473450 
	C424.502167,485.473450 416.531311,485.516296 408.561188,485.458862 
	C402.966248,485.418549 399.614838,482.507263 399.500641,477.768860 
	C399.392334,473.272675 402.445831,470.865906 408.424438,470.841644 
	C416.533813,470.808746 424.643433,470.833466 432.938782,470.833466 
	C432.938782,461.155609 432.938782,451.757721 432.938782,441.154388 
	C425.106750,441.154388 417.499420,440.963257 409.907440,441.222382 
	C404.940674,441.391907 399.936493,441.892303 395.052246,442.799957 
	C375.585541,446.417572 367.243774,454.380188 365.661133,474.161987 
	C364.337921,490.701263 364.779297,507.445312 365.430817,524.059814 
	C366.001343,538.609619 373.382416,549.225159 387.471191,554.244141 
	C391.799500,555.786072 396.469177,556.369751 400.967560,557.733032 
	C399.394653,560.120117 398.057770,562.391235 396.242584,564.175842 
	C385.073181,575.156982 373.753937,585.985840 362.611664,596.994019 
	C361.336853,598.253479 360.851440,600.312012 360.000000,602.000000 
	C335.645782,602.000000 311.291534,602.000000 286.468658,602.000000 
	C284.883545,601.334412 283.815857,600.194153 282.643402,600.073669 
	C261.245148,597.875000 240.037430,594.641663 219.439621,588.253601 
	C212.567963,586.122498 205.875626,583.413147 199.455078,580.554688 
	C244.494064,584.206299 283.292908,571.047363 314.027802,538.259583 
	C338.781921,511.852112 350.067444,478.779663 353.759491,443.318237 
	C355.282288,428.692017 354.039825,413.777863 354.407928,398.960876 
	C356.000702,398.116028 357.608643,397.571808 358.421173,396.450928 
	C364.043182,388.695801 369.607330,380.893707 374.984283,372.967072 
	C383.399170,360.561859 391.750671,348.111176 399.944672,335.559326 
	C408.094147,323.075714 416.678558,310.809570 423.874664,297.786316 
	C433.441498,280.472626 442.513428,262.814789 450.572937,244.758041 
	C459.171661,225.493149 466.655212,205.707153 474.006836,185.918762 
	C477.716187,175.934265 480.731995,165.578705 482.854523,155.145416 
	C485.814545,140.595596 487.903107,125.849976 489.845276,111.119675 
	C490.772156,104.089638 490.804962,96.896370 490.677551,89.787163 
	C490.577362,84.195938 489.610474,78.620232 489.028595,73.037628 
z"/>
<path fill="#D2D2D2" opacity="1.000000" stroke="none" 
	d="
M511.984009,439.589600 
	C516.154541,433.733215 520.123474,427.720032 524.533142,422.049622 
	C538.219421,404.450592 551.101990,386.354095 561.402344,366.496490 
	C567.290344,355.145233 573.934021,344.181000 579.675537,332.760040 
	C584.997559,322.173584 589.572144,311.211395 594.750854,300.192139 
	C595.343323,302.062836 595.848816,304.147400 595.945801,306.250763 
	C596.377686,315.616882 596.665588,324.989624 597.095520,334.355865 
	C597.134644,335.209412 597.812927,336.033691 598.597168,336.935791 
	C599.000000,339.700012 599.000000,342.400024 598.683472,345.825928 
	C598.246277,347.199219 598.020508,347.846558 598.020081,348.494019 
	C598.000793,380.445709 597.989807,412.397430 598.041138,444.349030 
	C598.043091,445.566528 598.666260,446.783020 599.000000,448.000000 
	C599.000000,450.700012 599.000000,453.400024 598.599121,456.617310 
	C597.819641,458.151428 597.137573,459.159637 597.108337,460.186401 
	C596.697998,474.617828 596.200928,489.050262 596.075012,503.485504 
	C595.892151,524.437439 595.891724,545.392456 596.020691,566.344910 
	C596.074768,575.124817 596.591980,583.905334 597.085449,592.675049 
	C597.149658,593.815613 598.334290,594.893250 599.000000,596.000000 
	C599.000000,597.066711 599.000000,598.133362 598.839172,599.695923 
	C598.785583,600.461243 598.892822,600.730591 599.000000,601.000000 
	C597.503357,601.333374 596.006897,601.957458 594.510071,601.958374 
	C516.652466,602.005554 438.794891,602.000000 360.468658,602.000000 
	C360.851440,600.312012 361.336853,598.253479 362.611664,596.994019 
	C373.753937,585.985840 385.073181,575.156982 396.242584,564.175842 
	C398.057770,562.391235 399.394653,560.120117 401.385864,557.618408 
	C412.186951,557.162964 422.554718,557.162964 433.028015,557.162964 
	C433.028015,546.821838 433.028015,537.852417 433.028015,528.882996 
	C436.928253,524.632385 440.828491,520.381775 445.282562,516.288940 
	C452.189697,537.596191 466.883698,550.323303 487.435089,556.480286 
	C510.423431,563.367432 542.552429,557.744751 554.989014,528.254089 
	C558.535095,519.845337 561.023315,511.192169 561.059204,501.456940 
	C548.742493,501.456940 536.974609,501.456940 525.194519,501.456940 
	C524.168945,512.853088 517.833862,521.037598 508.491852,522.960388 
	C496.169250,525.496643 486.086792,521.597961 481.335602,512.459473 
	C475.869690,501.946320 477.469482,489.260223 485.180725,481.967957 
	C495.171478,472.520020 513.047119,474.491669 522.003479,485.951263 
	C523.157471,487.427826 524.729614,489.636230 526.156311,489.673798 
	C537.713989,489.977936 549.283203,489.844513 561.909058,489.844513 
	C559.363220,483.969330 557.514832,478.823730 554.990173,474.034607 
	C545.673523,456.361084 532.902893,442.847260 511.984009,439.589600 
z"/>
<path fill="#FFFFFF" opacity="1.000000" stroke="none" 
	d="
M599.000000,595.531372 
	C598.334290,594.893250 597.149658,593.815613 597.085449,592.675049 
	C596.591980,583.905334 596.074768,575.124817 596.020691,566.344910 
	C595.891724,545.392456 595.892151,524.437439 596.075012,503.485504 
	C596.200928,489.050262 596.697998,474.617828 597.108337,460.186401 
	C597.137573,459.159637 597.819641,458.151428 598.599121,457.067322 
	C599.000000,503.020905 599.000000,549.041809 599.000000,595.531372 
z"/>
<path fill="#FFFFFF" opacity="1.000000" stroke="none" 
	d="
M599.000000,447.531342 
	C598.666260,446.783020 598.043091,445.566528 598.041138,444.349030 
	C597.989807,412.397430 598.000793,380.445709 598.020081,348.494019 
	C598.020508,347.846558 598.246277,347.199219 598.683472,346.275909 
	C599.000000,379.687561 599.000000,413.375122 599.000000,447.531342 
z"/>
<path fill="#FFFFFF" opacity="1.000000" stroke="none" 
	d="
M599.000000,600.750000 
	C598.892822,600.730591 598.785583,600.461243 598.839172,600.095947 
	C599.000000,600.000000 599.000000,600.500000 599.000000,600.750000 
z"/>
<path fill="#020202" opacity="1.000000" stroke="none" 
	d="
M354.055054,398.994690 
	C354.039825,413.777863 355.282288,428.692017 353.759491,443.318237 
	C350.067444,478.779663 338.781921,511.852112 314.027802,538.259583 
	C283.292908,571.047363 244.494064,584.206299 199.388321,580.216064 
	C150.280243,575.301575 74.266449,530.756104 45.572510,468.264282 
	C44.638805,466.230835 43.912491,463.877869 43.910580,461.673126 
	C43.828728,367.392456 43.839748,273.111694 43.846218,178.830963 
	C43.846287,177.844666 43.936916,176.858353 43.983067,175.917038 
	C79.104561,166.130951 121.690788,174.809708 145.325241,213.171234 
	C146.545120,215.151230 147.713318,217.163315 148.891571,219.168701 
	C153.875702,227.651611 156.133179,236.557083 156.030319,246.646225 
	C155.607483,288.118530 155.861740,329.597748 155.851868,371.994476 
	C155.726273,383.059784 155.116348,393.230804 155.637772,403.343445 
	C156.225464,414.741425 156.834732,426.302307 159.233307,437.403717 
	C162.666443,453.293396 172.455154,464.203735 188.802032,468.466827 
	C206.659348,473.123779 226.684738,465.516693 233.889908,450.488190 
	C241.249695,435.137177 239.808807,419.897461 230.166611,406.088715 
	C220.900604,392.818726 207.090698,389.471191 191.750961,391.647797 
	C185.251694,392.570038 178.875046,394.356293 172.172913,395.808258 
	C172.172913,394.092255 172.214554,392.444733 172.166183,390.799805 
	C171.844162,379.848969 171.502869,368.898682 171.167847,357.948212 
	C171.001099,342.185883 170.794388,326.423828 170.681717,310.661133 
	C170.607193,300.237885 170.667618,289.813690 170.667618,279.047150 
	C192.731964,277.444763 215.010712,278.187622 237.965271,281.993896 
	C240.216583,282.387482 241.679001,282.696198 243.143967,282.992371 
	C287.950104,292.050903 322.147247,315.040833 341.629150,357.602478 
	C347.697510,370.859894 351.462158,384.732666 354.055054,398.994690 
z"/>
<path fill="#F2F2F2" opacity="1.000000" stroke="none" 
	d="
M354.407928,398.960876 
	C351.462158,384.732666 347.697510,370.859894 341.629150,357.602478 
	C322.147247,315.040833 287.950104,292.050903 243.143967,282.992371 
	C241.679001,282.696198 240.216583,282.387482 238.370834,281.948914 
	C243.871826,273.644867 249.789871,265.501434 255.630646,257.302948 
	C266.836487,241.573730 278.059235,225.855927 289.154999,210.049179 
	C295.399078,201.153976 301.627991,192.233215 307.456085,183.064835 
	C313.920044,172.896088 319.971436,162.462753 326.106262,152.087708 
	C332.036743,142.058182 338.109711,132.098999 343.634735,121.847336 
	C349.566833,110.840332 355.415100,99.738205 360.399689,88.285744 
	C364.636688,78.550972 367.845337,68.338280 371.040741,58.189617 
	C373.850464,49.266102 376.134338,40.168819 378.388916,31.083376 
	C379.132935,28.085142 379.061340,24.884504 379.508667,20.270649 
	C419.453674,30.959612 455.606262,48.268742 488.722839,72.880936 
	C489.610474,78.620232 490.577362,84.195938 490.677551,89.787163 
	C490.804962,96.896370 490.772156,104.089638 489.845276,111.119675 
	C487.903107,125.849976 485.814545,140.595596 482.854523,155.145416 
	C480.731995,165.578705 477.716187,175.934265 474.006836,185.918762 
	C466.655212,205.707153 459.171661,225.493149 450.572937,244.758041 
	C442.513428,262.814789 433.441498,280.472626 423.874664,297.786316 
	C416.678558,310.809570 408.094147,323.075714 399.944672,335.559326 
	C391.750671,348.111176 383.399170,360.561859 374.984283,372.967072 
	C369.607330,380.893707 364.043182,388.695801 358.421173,396.450928 
	C357.608643,397.571808 356.000702,398.116028 354.407928,398.960876 
z"/>
<path fill="#F1F1F1" opacity="1.000000" stroke="none" 
	d="
M170.849060,358.092651 
	C171.502869,368.898682 171.844162,379.848969 172.166183,390.799805 
	C172.214554,392.444733 172.172913,394.092255 172.172913,395.808258 
	C178.875046,394.356293 185.251694,392.570038 191.750961,391.647797 
	C207.090698,389.471191 220.900604,392.818726 230.166611,406.088715 
	C239.808807,419.897461 241.249695,435.137177 233.889908,450.488190 
	C226.684738,465.516693 206.659348,473.123779 188.802032,468.466827 
	C172.455154,464.203735 162.666443,453.293396 159.233307,437.403717 
	C156.834732,426.302307 156.225464,414.741425 155.637772,403.343445 
	C155.116348,393.230804 155.726273,383.059784 155.940063,372.455627 
	C159.584930,368.868683 163.172745,365.790710 166.645721,362.588287 
	C168.068344,361.276459 169.242889,359.695587 170.849060,358.092651 
z"/>
<path fill="#030303" opacity="1.000000" stroke="none" 
	d="
M511.580383,439.675018 
	C532.902893,442.847260 545.673523,456.361084 554.990173,474.034607 
	C557.514832,478.823730 559.363220,483.969330 561.909058,489.844513 
	C549.283203,489.844513 537.713989,489.977936 526.156311,489.673798 
	C524.729614,489.636230 523.157471,487.427826 522.003479,485.951263 
	C513.047119,474.491669 495.171478,472.520020 485.180725,481.967957 
	C477.469482,489.260223 475.869690,501.946320 481.335602,512.459473 
	C486.086792,521.597961 496.169250,525.496643 508.491852,522.960388 
	C517.833862,521.037598 524.168945,512.853088 525.194519,501.456940 
	C536.974609,501.456940 548.742493,501.456940 561.059204,501.456940 
	C561.023315,511.192169 558.535095,519.845337 554.989014,528.254089 
	C542.552429,557.744751 510.423431,563.367432 487.435089,556.480286 
	C466.883698,550.323303 452.189697,537.596191 445.620819,516.172241 
	C445.096588,506.490326 443.461670,496.899872 444.730133,487.710205 
	C448.407166,461.070618 476.230835,435.882172 511.580383,439.675018 
z"/>
<path fill="#030303" opacity="1.000000" stroke="none" 
	d="
M432.558289,528.853760 
	C433.028015,537.852417 433.028015,546.821838 433.028015,557.162964 
	C422.554718,557.162964 412.186951,557.162964 401.400879,557.277588 
	C396.469177,556.369751 391.799500,555.786072 387.471191,554.244141 
	C373.382416,549.225159 366.001343,538.609619 365.430817,524.059814 
	C364.779297,507.445312 364.337921,490.701263 365.661133,474.161987 
	C367.243774,454.380188 375.585541,446.417572 395.052246,442.799957 
	C399.936493,441.892303 404.940674,441.391907 409.907440,441.222382 
	C417.499420,440.963257 425.106750,441.154388 432.938782,441.154388 
	C432.938782,451.757721 432.938782,461.155609 432.938782,470.833466 
	C424.643433,470.833466 416.533813,470.808746 408.424438,470.841644 
	C402.445831,470.865906 399.392334,473.272675 399.500641,477.768860 
	C399.614838,482.507263 402.966248,485.418549 408.561188,485.458862 
	C416.531311,485.516296 424.502167,485.473450 432.825134,485.473450 
	C432.825134,494.860565 432.825134,503.911652 432.825134,513.511597 
	C424.719330,513.511597 416.602905,513.497559 408.486542,513.516479 
	C402.878571,513.529480 399.054352,516.533569 399.053101,520.871643 
	C399.051819,525.349182 403.185486,528.810303 408.615692,528.823303 
	C416.439972,528.842041 424.264282,528.825806 432.558289,528.853760 
z"/>
</svg>