<svg version="1.1" id="Layer_1" xmlns="http://www.w3.org/2000/svg" xmlns:xlink="http://www.w3.org/1999/xlink" x="0px" y="0px"
	 width="100%" viewBox="0 0 598 601" enable-background="new 0 0 598 601" xml:space="preserve">
<path fill="#FEFEFE" opacity="1.000000" stroke="none" 
	d="
M294.000000,602.000000 
	C196.406525,602.000000 98.813042,602.000000 1.000000,602.000000 
	C1.000000,505.312561 1.000000,408.624939 1.391641,311.618652 
	C6.463043,357.685181 32.143112,450.115082 44.044086,462.783875 
	C44.044086,366.894867 44.044086,271.268188 44.044086,175.710403 
	C59.143368,171.536285 77.484245,171.223022 91.639442,174.526138 
	C122.442688,181.714066 141.924591,201.607925 153.874512,229.889099 
	C155.125519,232.849747 155.741638,236.296631 155.763229,239.523865 
	C155.919205,262.854675 155.820877,286.187073 155.853348,309.518921 
	C155.882339,330.345093 155.975769,351.171204 155.938126,372.456360 
	C155.725449,383.061401 155.116669,393.233093 155.637726,403.346619 
	C156.225006,414.745758 156.831223,426.308197 159.230240,437.410461 
	C162.664154,453.302063 172.464218,464.204865 188.805344,468.474243 
	C208.385086,473.589813 228.882324,464.308929 235.565536,446.884399 
	C244.414291,423.813843 232.172073,386.117157 191.754913,391.632538 
	C185.253220,392.519775 178.880203,394.349976 172.191666,395.799744 
	C172.191666,394.250366 172.229553,392.769257 172.185638,391.290588 
	C171.855499,380.174011 171.509262,369.057892 171.306061,357.572083 
	C171.444077,331.184296 171.444077,305.166046 171.444077,279.002472 
	C193.128769,277.276917 215.599747,278.532654 238.371216,281.952087 
	C249.454071,285.077759 260.438141,287.315521 270.796051,291.216034 
	C288.830627,298.007355 305.517487,307.335114 318.373779,322.224121 
	C337.771240,344.688568 349.871582,370.548187 354.071289,400.420532 
	C354.307495,403.827728 354.713745,406.801056 354.882233,409.787811 
	C356.586426,439.997101 351.834137,469.105865 339.956818,496.997681 
	C318.832977,546.603210 281.172028,574.060425 227.872192,580.067322 
	C218.507919,581.122620 208.922638,580.216980 199.439423,580.216980 
	C199.422729,580.771667 199.406021,581.326294 199.389313,581.880981 
	C223.182129,591.012756 248.013504,595.751892 273.189453,599.056335 
	C280.135437,599.968018 287.063660,601.015076 294.000000,602.000000 
z"/>
<path fill="#010101" opacity="1.000000" stroke="none" 
	d="
M237.990570,281.812653 
	C215.599747,278.532654 193.128769,277.276917 171.444077,279.002472 
	C171.444077,305.166046 171.444077,331.184296 170.987396,357.717957 
	C170.165680,358.568726 169.795425,358.898621 169.436432,359.240356 
	C164.970245,363.491699 160.505722,367.744720 156.040756,371.997345 
	C155.975769,351.171204 155.882339,330.345093 155.853348,309.518921 
	C155.820877,286.187073 155.919205,262.854675 155.763229,239.523865 
	C155.741638,236.296631 155.125519,232.849747 153.874512,229.889099 
	C141.924591,201.607925 122.442688,181.714066 91.639442,174.526138 
	C77.484245,171.223022 59.143368,171.536285 44.044086,175.710403 
	C44.044086,271.268188 44.044086,366.894867 44.044086,462.783875 
	C32.143112,450.115082 6.463043,357.685181 1.391641,311.149994 
	C1.000000,208.312439 1.000000,105.624878 1.463443,2.469150 
	C6.284590,1.667324 10.642295,1.333662 15.000000,1.000000 
	C74.687561,1.000000 134.375122,1.000000 194.714340,1.399302 
	C240.926163,3.071397 286.478638,4.575770 331.775848,10.060281 
	C348.239838,12.053710 364.777496,13.960526 380.239197,20.709211 
	C379.742493,23.771805 379.426147,26.390846 378.986694,28.989063 
	C378.117188,34.130020 377.748688,39.444084 376.154999,44.356285 
	C372.535980,55.511169 368.802460,66.680626 364.197754,77.451805 
	C357.344849,93.481934 350.044373,109.345161 342.268066,124.947327 
	C337.227478,135.060669 331.103088,144.644470 325.274078,154.351273 
	C319.439484,164.067444 313.588348,173.786728 307.349121,183.243805 
	C298.086304,197.283875 288.585907,211.171219 278.977173,224.977783 
	C271.449127,235.794601 263.611084,246.395844 255.896378,257.082428 
	C249.939362,265.334229 243.959991,273.569855 237.990570,281.812653 
z"/>
<path fill="#171717" opacity="1.000000" stroke="none" 
	d="
M294.468658,602.000000 
	C287.063660,601.015076 280.135437,599.968018 273.189453,599.056335 
	C248.013504,595.751892 223.182129,591.012756 199.389313,581.880981 
	C199.406021,581.326294 199.422729,580.771667 199.439423,580.216980 
	C208.922638,580.216980 218.507919,581.122620 227.872192,580.067322 
	C281.172028,574.060425 318.832977,546.603210 339.956818,496.997681 
	C351.834137,469.105865 356.586426,439.997101 354.882233,409.787811 
	C354.713745,406.801056 354.307495,403.827728 354.419434,400.375977 
	C355.262604,399.674408 355.848450,399.555939 356.111023,399.199402 
	C361.473053,391.918579 366.803040,384.614075 372.129364,377.307007 
	C377.561401,369.854919 383.335510,362.622711 388.327667,354.886292 
	C396.268555,342.580139 403.782288,329.993713 411.297791,317.418945 
	C420.256989,302.428680 429.495239,287.576263 437.737061,272.194977 
	C444.777771,259.055206 450.872192,245.379578 456.846863,231.705765 
	C462.495972,218.777145 468.015564,205.735718 472.535919,192.386261 
	C476.837433,179.682968 479.818878,166.529449 483.296417,153.551285 
	C486.508301,141.564362 489.031403,129.523438 489.129211,116.960693 
	C489.227142,104.385696 490.317444,91.817360 491.042267,79.250114 
	C491.106750,78.132057 491.683105,77.043510 492.349487,76.029190 
	C509.241699,89.675591 523.568237,105.316010 535.886597,122.794792 
	C563.213623,161.569794 579.803223,204.880890 588.755005,251.136917 
	C592.054077,268.184052 593.128296,285.661774 594.853149,302.998322 
	C593.699036,304.045013 592.646912,304.924103 592.165527,306.047760 
	C590.294067,310.416382 588.961487,315.048340 586.781494,319.246399 
	C579.230469,333.787781 571.424500,348.197083 563.682983,362.639160 
	C559.008362,371.359711 554.719299,380.330231 549.439209,388.670776 
	C544.241394,396.881317 538.022095,404.446411 532.231323,412.280182 
	C525.496216,421.391571 518.739685,430.487213 511.591431,439.680176 
	C476.122467,435.848724 448.365723,461.253082 444.724731,487.700104 
	C443.458527,496.897339 445.057892,506.489075 444.981628,515.943237 
	C440.754578,520.279541 436.894348,524.573303 432.564026,528.838867 
	C424.435608,528.814392 416.777374,528.821838 409.119110,528.820618 
	C403.242645,528.819641 399.041504,525.501038 399.049500,520.879272 
	C399.057281,516.380554 402.919647,513.510925 408.967651,513.510803 
	C416.924164,513.510620 424.880646,513.510742 432.829254,513.510742 
	C432.829254,503.934174 432.829254,494.880615 432.829254,485.528839 
	C424.509216,485.528839 416.537720,485.584625 408.567413,485.510132 
	C402.802521,485.456268 399.300354,482.196472 399.498291,477.289062 
	C399.669067,473.056000 402.653839,470.854736 408.397888,470.832520 
	C416.509155,470.801208 424.620636,470.824646 432.941833,470.824646 
	C432.941833,461.176849 432.941833,451.781860 432.941833,440.905304 
	C420.275452,441.496704 407.745667,441.018646 395.576965,442.889374 
	C375.368011,445.996124 367.290802,454.211548 365.676849,474.156158 
	C364.338562,490.693878 364.803955,507.440094 365.443146,524.056519 
	C366.003387,538.619629 373.436218,549.151001 387.466553,554.271423 
	C391.177399,555.625671 395.142822,556.282410 399.168091,557.458618 
	C399.638092,558.012695 400.224091,558.639160 400.182861,558.683594 
	C397.166351,561.934814 394.190033,565.231934 391.021057,568.331665 
	C381.620056,577.527344 372.094727,586.596558 362.747559,595.846069 
	C361.454407,597.125732 360.892181,599.144104 359.589966,600.892700 
	C357.458893,601.309937 355.729431,601.654968 354.000000,602.000000 
	C334.312439,602.000000 314.624878,602.000000 294.468658,602.000000 
z"/>
<path fill="#1E1E1E" opacity="1.000000" stroke="none" 
	d="
M359.991577,600.820557 
	C360.892181,599.144104 361.454407,597.125732 362.747559,595.846069 
	C372.094727,586.596558 381.620056,577.527344 391.021057,568.331665 
	C394.190033,565.231934 397.166351,561.934814 400.182861,558.683594 
	C400.224091,558.639160 399.638092,558.012695 399.614136,557.399109 
	C410.901398,557.140320 421.919342,557.140320 433.034149,557.140320 
	C433.034149,546.802124 433.034149,537.834534 433.034149,528.867004 
	C436.894348,524.573303 440.754578,520.279541 445.209167,516.210205 
	C448.057922,521.410156 449.759277,526.737244 452.660156,531.302002 
	C467.033569,553.919922 495.759033,564.004333 523.312073,556.360718 
	C543.464111,550.770203 553.721252,536.073730 558.860779,516.962036 
	C560.166138,512.108276 560.635925,507.029877 561.593567,501.448608 
	C548.760986,501.448608 536.989197,501.448608 525.204773,501.448608 
	C524.385986,509.588257 521.889832,514.820618 516.903625,518.784912 
	C508.979065,525.085327 495.294220,525.480042 487.445923,519.634583 
	C479.224121,513.510986 475.803009,499.987823 479.878632,489.721680 
	C483.688202,480.125671 493.517059,474.612640 504.611206,476.185974 
	C511.964478,477.228821 518.139465,480.526337 522.570984,486.759705 
	C523.455627,488.004028 524.918396,489.684601 526.142883,489.708344 
	C537.708679,489.932892 549.280640,489.841980 561.914124,489.841980 
	C559.367371,483.982758 557.504089,478.848389 554.987305,474.057312 
	C545.690491,456.359467 532.909180,442.860596 511.992462,439.589661 
	C518.739685,430.487213 525.496216,421.391571 532.231323,412.280182 
	C538.022095,404.446411 544.241394,396.881317 549.439209,388.670776 
	C554.719299,380.330231 559.008362,371.359711 563.682983,362.639160 
	C571.424500,348.197083 579.230469,333.787781 586.781494,319.246399 
	C588.961487,315.048340 590.294067,310.416382 592.165527,306.047760 
	C592.646912,304.924103 593.699036,304.045013 595.078186,303.348267 
	C599.370361,352.349152 597.991089,401.139679 597.830566,449.897797 
	C597.688110,493.160431 596.606750,536.419434 596.289246,579.682617 
	C596.239624,586.448120 598.049744,593.227173 599.000000,600.000000 
	C599.610229,603.035767 597.305420,601.964539 596.035522,601.967712 
	C577.336243,602.014526 558.636719,602.000000 539.179443,601.696594 
	C517.922180,601.293945 497.422699,601.194702 476.461609,601.058350 
	C455.968140,601.088135 435.936310,601.155029 415.447998,601.141968 
	C396.658173,600.981445 378.324890,600.901001 359.991577,600.820557 
z"/>
<path fill="#FEFEFE" opacity="1.000000" stroke="none" 
	d="
M599.000000,599.531372 
	C598.049744,593.227173 596.239624,586.448120 596.289246,579.682617 
	C596.606750,536.419434 597.688110,493.160431 597.830566,449.897797 
	C597.991089,401.139679 599.370361,352.349152 595.442261,303.293030 
	C593.128296,285.661774 592.054077,268.184052 588.755005,251.136917 
	C579.803223,204.880890 563.213623,161.569794 535.886597,122.794792 
	C523.568237,105.316010 509.241699,89.675591 492.200226,75.728592 
	C490.294312,74.202225 488.896637,73.022499 487.432037,71.932716 
	C455.056763,47.842857 419.207184,30.947233 380.363892,20.256241 
	C364.777496,13.960526 348.239838,12.053710 331.775848,10.060281 
	C286.478638,4.575770 240.926163,3.071397 195.182999,1.399302 
	C329.607910,1.000000 464.215820,1.000000 599.000000,1.000000 
	C599.000000,200.354187 599.000000,399.708435 599.000000,599.531372 
z"/>
<path fill="#C5C5C5" opacity="1.000000" stroke="none" 
	d="
M359.589966,600.892700 
	C378.324890,600.901001 396.658173,600.981445 415.454834,601.338501 
	C415.918213,601.615112 416.000000,602.000000 416.000000,602.000000 
	C395.645782,602.000000 375.291534,602.000000 354.468658,602.000000 
	C355.729431,601.654968 357.458893,601.309937 359.589966,600.892700 
z"/>
<path fill="#565656" opacity="1.000000" stroke="none" 
	d="
M476.923218,601.095459 
	C497.422699,601.194702 517.922180,601.293945 538.710815,601.696594 
	C518.645752,602.000000 498.291534,602.000000 477.469360,601.772217 
	C477.001434,601.544373 476.923218,601.095520 476.923218,601.095459 
z"/>
<path fill="#8E8E8E" opacity="1.000000" stroke="none" 
	d="
M476.461609,601.058350 
	C476.923218,601.095520 477.001434,601.544373 477.000732,601.772217 
	C456.979095,602.000000 436.958221,602.000000 416.468658,602.000000 
	C416.000000,602.000000 415.918213,601.615112 415.911346,601.418518 
	C435.936310,601.155029 455.968140,601.088135 476.461609,601.058350 
z"/>
<path fill="#BEBEBE" opacity="1.000000" stroke="none" 
	d="
M14.525872,1.000000 
	C10.642295,1.333662 6.284590,1.667324 1.463443,2.000493 
	C5.350582,1.666667 9.701163,1.333333 14.525872,1.000000 
z"/>
<path fill="#0C0C0C" opacity="1.000000" stroke="none" 
	d="
M380.239197,20.709211 
	C419.207184,30.947233 455.056763,47.842857 487.432037,71.932716 
	C488.896637,73.022499 490.294312,74.202225 491.872437,75.640656 
	C491.683105,77.043510 491.106750,78.132057 491.042267,79.250114 
	C490.317444,91.817360 489.227142,104.385696 489.129211,116.960693 
	C489.031403,129.523438 486.508301,141.564362 483.296417,153.551285 
	C479.818878,166.529449 476.837433,179.682968 472.535919,192.386261 
	C468.015564,205.735718 462.495972,218.777145 456.846863,231.705765 
	C450.872192,245.379578 444.777771,259.055206 437.737061,272.194977 
	C429.495239,287.576263 420.256989,302.428680 411.297791,317.418945 
	C403.782288,329.993713 396.268555,342.580139 388.327667,354.886292 
	C383.335510,362.622711 377.561401,369.854919 372.129364,377.307007 
	C366.803040,384.614075 361.473053,391.918579 356.111023,399.199402 
	C355.848450,399.555939 355.262604,399.674408 354.479126,399.948303 
	C349.871582,370.548187 337.771240,344.688568 318.373779,322.224121 
	C305.517487,307.335114 288.830627,298.007355 270.796051,291.216034 
	C260.438141,287.315521 249.454071,285.077759 238.371231,281.952087 
	C243.959991,273.569855 249.939362,265.334229 255.896378,257.082428 
	C263.611084,246.395844 271.449127,235.794601 278.977173,224.977783 
	C288.585907,211.171219 298.086304,197.283875 307.349121,183.243805 
	C313.588348,173.786728 319.439484,164.067444 325.274078,154.351273 
	C331.103088,144.644470 337.227478,135.060669 342.268066,124.947327 
	C350.044373,109.345161 357.344849,93.481934 364.197754,77.451805 
	C368.802460,66.680626 372.535980,55.511169 376.154999,44.356285 
	C377.748688,39.444084 378.117188,34.130020 378.986694,28.989063 
	C379.426147,26.390846 379.742493,23.771805 380.239197,20.709211 
z"/>
<path fill="#0D0D0D" opacity="1.000000" stroke="none" 
	d="
M155.938126,372.456360 
	C160.505722,367.744720 164.970245,363.491699 169.436432,359.240356 
	C169.795425,358.898621 170.165680,358.568726 170.849380,358.087494 
	C171.509262,369.057892 171.855499,380.174011 172.185638,391.290588 
	C172.229553,392.769257 172.191666,394.250366 172.191666,395.799744 
	C178.880203,394.349976 185.253220,392.519775 191.754913,391.632538 
	C232.172073,386.117157 244.414291,423.813843 235.565536,446.884399 
	C228.882324,464.308929 208.385086,473.589813 188.805344,468.474243 
	C172.464218,464.204865 162.664154,453.302063 159.230240,437.410461 
	C156.831223,426.308197 156.225006,414.745758 155.637726,403.346619 
	C155.116669,393.233093 155.725449,383.061401 155.938126,372.456360 
z"/>
<path fill="#FDFDFD" opacity="1.000000" stroke="none" 
	d="
M511.591431,439.680176 
	C532.909180,442.860596 545.690491,456.359467 554.987305,474.057312 
	C557.504089,478.848389 559.367371,483.982758 561.914124,489.841980 
	C549.280640,489.841980 537.708679,489.932892 526.142883,489.708344 
	C524.918396,489.684601 523.455627,488.004028 522.570984,486.759705 
	C518.139465,480.526337 511.964478,477.228821 504.611206,476.185974 
	C493.517059,474.612640 483.688202,480.125671 479.878632,489.721680 
	C475.803009,499.987823 479.224121,513.510986 487.445923,519.634583 
	C495.294220,525.480042 508.979065,525.085327 516.903625,518.784912 
	C521.889832,514.820618 524.385986,509.588257 525.204773,501.448608 
	C536.989197,501.448608 548.760986,501.448608 561.593567,501.448608 
	C560.635925,507.029877 560.166138,512.108276 558.860779,516.962036 
	C553.721252,536.073730 543.464111,550.770203 523.312073,556.360718 
	C495.759033,564.004333 467.033569,553.919922 452.660156,531.302002 
	C449.759277,526.737244 448.057922,521.410156 445.576019,516.167603 
	C445.057892,506.489075 443.458527,496.897339 444.724731,487.700104 
	C448.365723,461.253082 476.122467,435.848724 511.591431,439.680176 
z"/>
<path fill="#FDFDFD" opacity="1.000000" stroke="none" 
	d="
M432.564026,528.838867 
	C433.034149,537.834534 433.034149,546.802124 433.034149,557.140320 
	C421.919342,557.140320 410.901398,557.140320 399.437408,557.199829 
	C395.142822,556.282410 391.177399,555.625671 387.466553,554.271423 
	C373.436218,549.151001 366.003387,538.619629 365.443146,524.056519 
	C364.803955,507.440094 364.338562,490.693878 365.676849,474.156158 
	C367.290802,454.211548 375.368011,445.996124 395.576965,442.889374 
	C407.745667,441.018646 420.275452,441.496704 432.941833,440.905304 
	C432.941833,451.781860 432.941833,461.176849 432.941833,470.824646 
	C424.620636,470.824646 416.509155,470.801208 408.397888,470.832520 
	C402.653839,470.854736 399.669067,473.056000 399.498291,477.289062 
	C399.300354,482.196472 402.802521,485.456268 408.567413,485.510132 
	C416.537720,485.584625 424.509216,485.528839 432.829254,485.528839 
	C432.829254,494.880615 432.829254,503.934174 432.829254,513.510742 
	C424.880646,513.510742 416.924164,513.510620 408.967651,513.510803 
	C402.919647,513.510925 399.057281,516.380554 399.049500,520.879272 
	C399.041504,525.501038 403.242645,528.819641 409.119110,528.820618 
	C416.777374,528.821838 424.435608,528.814392 432.564026,528.838867 
z"/>
</svg>