<svg version="1.1" id="Layer_1" xmlns="http://www.w3.org/2000/svg" xmlns:xlink="http://www.w3.org/1999/xlink" x="0px" y="0px"
	 width="100%" viewBox="0 0 598 601" enable-background="new 0 0 598 601" xml:space="preserve">
<path fill="#FFFFFF" opacity="1.000000" stroke="none" 
	d="
M294.000000,602.000000 
	C196.406525,602.000000 98.813042,602.000000 1.000000,602.000000 
	C1.000000,505.312561 1.000000,408.624939 1.388061,311.656799 
	C5.189439,364.852509 21.826302,414.681366 42.627346,463.361633 
	C43.114979,463.270416 43.602615,463.179199 44.090248,463.087982 
	C44.090248,367.191071 44.090248,271.294128 44.090248,175.421875 
	C58.311287,172.266403 72.181137,171.061127 86.164925,173.451401 
	C119.595978,179.165848 141.018265,199.451874 153.868057,229.856262 
	C155.118729,232.815521 155.747971,236.262878 155.758286,239.486588 
	C155.884140,278.816772 155.831680,318.147552 155.849701,357.478149 
	C155.852219,362.971802 155.984528,368.465424 155.965866,374.424072 
	C155.734818,384.211243 155.075012,393.562012 155.586105,402.848328 
	C156.223465,414.428589 156.807449,426.176971 159.256302,437.452759 
	C162.710388,453.357300 172.519699,464.326782 188.940704,468.495392 
	C206.188629,472.873871 225.384674,466.012573 233.000076,452.006165 
	C241.307770,436.726471 240.111053,421.308380 230.838501,407.033539 
	C221.873337,393.231873 207.917297,389.567596 192.336853,391.511993 
	C185.653656,392.345978 179.107040,394.274628 172.161270,395.778961 
	C172.161270,393.867065 172.207611,392.053345 172.153656,390.242615 
	C171.831894,379.444702 171.487000,368.647491 171.266464,357.402496 
	C171.383072,331.083893 171.383072,305.212830 171.383072,279.035370 
	C193.074448,277.184814 215.530457,278.535309 238.311890,281.940125 
	C247.698624,284.416443 256.894135,286.187378 265.639679,289.245239 
	C291.503510,298.288452 313.588104,312.426544 329.114624,335.949738 
	C342.281158,355.897430 350.950439,377.300385 354.134644,401.364258 
	C354.334900,403.766266 354.679901,405.740204 354.808472,407.728119 
	C357.010864,441.789703 351.215454,474.390015 336.243927,505.122528 
	C314.393097,549.976196 277.890900,574.301575 228.811417,579.964661 
	C218.220764,581.186768 207.368683,580.143127 196.637024,580.143127 
	C196.512329,580.540344 196.387619,580.937622 196.262909,581.334839 
	C203.721390,583.850098 211.079025,586.733582 218.657959,588.808960 
	C238.506897,594.244324 258.662659,598.160156 279.191986,600.032898 
	C284.146545,600.484924 289.064972,601.333679 294.000000,602.000000 
z"/>
<path fill="#21529F" opacity="1.000000" stroke="none" 
	d="
M156.056732,373.959045 
	C155.984528,368.465424 155.852219,362.971802 155.849701,357.478149 
	C155.831680,318.147552 155.884140,278.816772 155.758286,239.486588 
	C155.747971,236.262878 155.118729,232.815521 153.868057,229.856262 
	C141.018265,199.451874 119.595978,179.165848 86.164925,173.451401 
	C72.181137,171.061127 58.311287,172.266403 44.090248,175.421875 
	C44.090248,271.294128 44.090248,367.191071 44.090248,463.087982 
	C43.602615,463.179199 43.114979,463.270416 42.627346,463.361633 
	C21.826302,414.681366 5.189439,364.852509 1.388061,311.188110 
	C1.000000,207.756042 1.000000,104.512093 1.000000,1.000000 
	C66.020645,1.000000 131.041672,1.000000 196.725296,1.391535 
	C209.113968,2.187719 220.841049,2.564657 232.565826,3.003577 
	C249.715408,3.645577 266.868469,4.224542 284.009827,5.043934 
	C292.857056,5.466848 301.709106,6.108162 310.511017,7.083490 
	C323.470428,8.519506 336.476807,9.844509 349.293640,12.156473 
	C359.688354,14.031523 369.833466,17.290180 379.780334,20.210732 
	C377.160309,31.969553 375.751129,43.726292 372.367920,54.884480 
	C362.470490,87.527100 346.553436,117.495750 329.548645,146.884003 
	C307.738647,184.576767 283.023468,220.343109 257.182068,255.354126 
	C250.701614,264.134155 244.334351,272.997711 237.915039,281.822876 
	C215.530457,278.535309 193.074448,277.184814 171.383072,279.035370 
	C171.383072,305.212830 171.383072,331.083893 170.954742,357.564270 
	C165.703186,363.435425 160.879959,368.697235 156.056732,373.959045 
z"/>
<path fill="#1B96D2" opacity="1.000000" stroke="none" 
	d="
M294.468658,602.000000 
	C289.064972,601.333679 284.146545,600.484924 279.191986,600.032898 
	C258.662659,598.160156 238.506897,594.244324 218.657959,588.808960 
	C211.079025,586.733582 203.721390,583.850098 196.262909,581.334839 
	C196.387619,580.937622 196.512329,580.540344 196.637024,580.143127 
	C207.368683,580.143127 218.220764,581.186768 228.811417,579.964661 
	C277.890900,574.301575 314.393097,549.976196 336.243927,505.122528 
	C351.215454,474.390015 357.010864,441.789703 354.808472,407.728119 
	C354.679901,405.740204 354.334900,403.766266 354.416229,401.201569 
	C365.600586,385.550903 376.730469,370.671295 387.264771,355.381348 
	C413.711273,316.995575 437.247284,276.875641 455.744049,234.052139 
	C463.955353,215.041351 471.198975,195.462646 476.954010,175.583603 
	C482.548370,156.259537 486.086304,136.295975 489.691223,116.461281 
	C491.188721,108.222000 490.820068,99.585167 490.729492,91.135231 
	C490.664185,85.043442 489.655609,78.961761 489.379456,73.023598 
	C493.010315,75.831497 496.522827,78.285080 499.616882,81.185112 
	C518.194885,98.597946 534.515076,117.804054 547.522339,139.850983 
	C563.289917,166.576645 575.379395,194.778488 582.962891,224.832260 
	C586.742615,239.811539 590.030945,254.942154 592.797546,270.139740 
	C594.521423,279.609406 594.855042,289.332123 595.526245,299.133026 
	C594.840454,299.849121 594.341797,300.324585 594.056030,300.904846 
	C583.943481,321.438263 574.518921,342.346924 563.545715,362.408600 
	C554.658630,378.656189 544.176575,394.062714 533.897461,409.506531 
	C527.037598,419.813110 519.292297,429.530365 511.543152,439.604309 
	C505.837097,439.815369 500.439117,439.342957 495.241028,440.153168 
	C471.718048,443.819427 455.600494,457.098755 446.864868,479.109833 
	C442.104065,491.105652 442.722198,503.551178 444.962097,516.086182 
	C440.758148,520.359741 436.884094,524.520142 432.542084,528.713928 
	C423.741821,528.777954 415.408844,528.880798 407.077454,528.808533 
	C402.953186,528.772766 399.024719,524.686157 399.075043,520.814514 
	C399.125519,516.933655 402.628662,513.730713 407.096527,513.621765 
	C410.594421,513.536499 414.096069,513.603210 417.596039,513.602966 
	C422.686218,513.602722 427.776367,513.602966 432.918335,513.602966 
	C432.918335,503.857056 432.918335,494.910858 432.918335,485.396790 
	C424.560333,485.396790 416.432465,485.429016 408.305023,485.385559 
	C402.743652,485.355835 399.534393,482.368011 399.616516,477.435883 
	C399.690155,473.012268 402.470764,470.881409 408.313904,470.862610 
	C416.432739,470.836487 424.551727,470.856049 432.859619,470.856049 
	C432.859619,461.110046 432.859619,451.717651 432.859619,442.281036 
	C420.630615,442.281036 408.559875,441.113159 396.803955,442.539734 
	C376.362335,445.020264 367.457397,453.771881 365.722534,473.978180 
	C364.288361,490.682281 364.769684,507.625427 365.476624,524.417419 
	C366.154388,540.517151 375.344177,550.804688 390.673492,555.457336 
	C393.982178,556.461548 397.523865,556.698120 400.917786,557.615112 
	C399.733429,559.327820 398.693329,560.817383 397.429474,562.083557 
	C385.715210,573.819458 373.937317,585.492004 362.255280,597.259766 
	C360.926697,598.598083 360.073578,600.408508 359.000000,602.000000 
	C337.645782,602.000000 316.291534,602.000000 294.468658,602.000000 
z"/>
<path fill="#48BCEB" opacity="1.000000" stroke="none" 
	d="
M511.943237,439.511414 
	C519.292297,429.530365 527.037598,419.813110 533.897461,409.506531 
	C544.176575,394.062714 554.658630,378.656189 563.545715,362.408600 
	C574.518921,342.346924 583.943481,321.438263 594.056030,300.904846 
	C594.341797,300.324585 594.840454,299.849121 595.601501,299.596741 
	C596.642273,312.569092 597.912354,325.270386 597.894409,337.969849 
	C597.828979,384.356659 597.385193,430.743378 596.968018,477.129059 
	C596.851807,490.057007 596.018311,502.982666 596.071472,515.907043 
	C596.173950,540.819763 596.614746,565.732056 597.091736,590.641052 
	C597.145264,593.438477 598.336426,596.214233 599.000000,599.000000 
	C599.000000,599.998169 599.000000,600.996399 599.000000,601.997314 
	C519.312439,602.000000 439.624878,602.000000 359.468658,602.000000 
	C360.073578,600.408508 360.926697,598.598083 362.255280,597.259766 
	C373.937317,585.492004 385.715210,573.819458 397.429474,562.083557 
	C398.693329,560.817383 399.733429,559.327820 401.345551,557.527222 
	C412.135864,557.112549 422.457977,557.112549 433.010010,557.112549 
	C433.010010,546.853882 433.010010,537.767212 433.010010,528.680542 
	C436.884094,524.520142 440.758148,520.359741 445.196045,516.339355 
	C452.234253,537.314087 466.652832,550.069885 487.030334,556.399231 
	C511.033691,563.854797 536.831848,556.146973 549.684753,537.628418 
	C557.034912,527.038269 560.593689,515.060791 561.146606,501.548462 
	C548.861206,501.548462 537.128052,501.548462 525.379517,501.548462 
	C522.997925,515.725342 517.502197,521.471741 504.363922,523.486938 
	C494.884552,524.940918 485.727264,520.617371 481.503601,512.693481 
	C476.422516,503.161041 477.187744,490.875153 483.291962,483.982697 
	C493.508392,472.446991 512.630676,473.565155 522.160461,486.195007 
	C523.200256,487.573090 524.641052,489.647278 525.936340,489.677734 
	C537.523254,489.950378 549.119263,489.836700 560.779846,489.836700 
	C557.790466,466.859283 535.540894,444.169830 511.943237,439.511414 
z"/>
<path fill="#FFFFFF" opacity="1.000000" stroke="none" 
	d="
M599.000000,598.531372 
	C598.336426,596.214233 597.145264,593.438477 597.091736,590.641052 
	C596.614746,565.732056 596.173950,540.819763 596.071472,515.907043 
	C596.018311,502.982666 596.851807,490.057007 596.968018,477.129059 
	C597.385193,430.743378 597.828979,384.356659 597.894409,337.969849 
	C597.912354,325.270386 596.642273,312.569092 595.887939,299.404968 
	C594.855042,289.332123 594.521423,279.609406 592.797546,270.139740 
	C590.030945,254.942154 586.742615,239.811539 582.962891,224.832260 
	C575.379395,194.778488 563.289917,166.576645 547.522339,139.850983 
	C534.515076,117.804054 518.194885,98.597946 499.616882,81.185112 
	C496.522827,78.285080 493.010315,75.831497 489.231018,72.714569 
	C485.358337,69.797279 481.972565,67.298897 478.528778,64.883240 
	C460.655884,52.346252 441.466614,42.108044 421.304230,33.929096 
	C407.882355,28.484436 393.848969,24.547134 380.089294,19.935173 
	C369.833466,17.290180 359.688354,14.031523 349.293640,12.156473 
	C336.476807,9.844509 323.470428,8.519506 310.511017,7.083490 
	C301.709106,6.108162 292.857056,5.466848 284.009827,5.043934 
	C266.868469,4.224542 249.715408,3.645577 232.565826,3.003577 
	C220.841049,2.564657 209.113968,2.187719 197.193954,1.391535 
	C330.941376,1.000000 464.882721,1.000000 599.000000,1.000000 
	C599.000000,200.020859 599.000000,399.041779 599.000000,598.531372 
z"/>
<path fill="#0576BC" opacity="1.000000" stroke="none" 
	d="
M379.780334,20.210728 
	C393.848969,24.547134 407.882355,28.484436 421.304230,33.929096 
	C441.466614,42.108044 460.655884,52.346252 478.528778,64.883240 
	C481.972565,67.298897 485.358337,69.797279 488.919312,72.566544 
	C489.655609,78.961761 490.664185,85.043442 490.729492,91.135231 
	C490.820068,99.585167 491.188721,108.222000 489.691223,116.461281 
	C486.086304,136.295975 482.548370,156.259537 476.954010,175.583603 
	C471.198975,195.462646 463.955353,215.041351 455.744049,234.052139 
	C437.247284,276.875641 413.711273,316.995575 387.264771,355.381348 
	C376.730469,370.671295 365.600586,385.550903 354.460266,400.780029 
	C350.950439,377.300385 342.281158,355.897430 329.114624,335.949738 
	C313.588104,312.426544 291.503510,298.288452 265.639679,289.245239 
	C256.894135,286.187378 247.698624,284.416443 238.311890,281.940125 
	C244.334351,272.997711 250.701614,264.134155 257.182068,255.354126 
	C283.023468,220.343109 307.738647,184.576767 329.548645,146.884003 
	C346.553436,117.495750 362.470490,87.527100 372.367920,54.884480 
	C375.751129,43.726292 377.160309,31.969553 379.780334,20.210728 
z"/>
<path fill="#0677BC" opacity="1.000000" stroke="none" 
	d="
M155.965881,374.424072 
	C160.879959,368.697235 165.703186,363.435425 170.838135,358.011810 
	C171.487000,368.647491 171.831894,379.444702 172.153656,390.242615 
	C172.207611,392.053345 172.161270,393.867065 172.161270,395.778961 
	C179.107040,394.274628 185.653656,392.345978 192.336853,391.511993 
	C207.917297,389.567596 221.873337,393.231873 230.838501,407.033539 
	C240.111053,421.308380 241.307770,436.726471 233.000076,452.006165 
	C225.384674,466.012573 206.188629,472.873871 188.940704,468.495392 
	C172.519699,464.326782 162.710388,453.357300 159.256302,437.452759 
	C156.807449,426.176971 156.223465,414.428589 155.586105,402.848328 
	C155.075012,393.562012 155.734818,384.211243 155.965881,374.424072 
z"/>
<path fill="#FDFEFF" opacity="1.000000" stroke="none" 
	d="
M511.543152,439.604309 
	C535.540894,444.169830 557.790466,466.859283 560.779846,489.836700 
	C549.119263,489.836700 537.523254,489.950378 525.936340,489.677734 
	C524.641052,489.647278 523.200256,487.573090 522.160461,486.195007 
	C512.630676,473.565155 493.508392,472.446991 483.291962,483.982697 
	C477.187744,490.875153 476.422516,503.161041 481.503601,512.693481 
	C485.727264,520.617371 494.884552,524.940918 504.363922,523.486938 
	C517.502197,521.471741 522.997925,515.725342 525.379517,501.548462 
	C537.128052,501.548462 548.861206,501.548462 561.146606,501.548462 
	C560.593689,515.060791 557.034912,527.038269 549.684753,537.628418 
	C536.831848,556.146973 511.033691,563.854797 487.030334,556.399231 
	C466.652832,550.069885 452.234253,537.314087 445.525940,516.226257 
	C442.722198,503.551178 442.104065,491.105652 446.864868,479.109833 
	C455.600494,457.098755 471.718048,443.819427 495.241028,440.153168 
	C500.439117,439.342957 505.837097,439.815369 511.543152,439.604309 
z"/>
<path fill="#FCFEFE" opacity="1.000000" stroke="none" 
	d="
M432.542053,528.713928 
	C433.010010,537.767212 433.010010,546.853882 433.010010,557.112549 
	C422.457977,557.112549 412.135864,557.112549 401.385986,557.200439 
	C397.523865,556.698120 393.982178,556.461548 390.673492,555.457336 
	C375.344177,550.804688 366.154388,540.517151 365.476624,524.417419 
	C364.769684,507.625427 364.288361,490.682281 365.722534,473.978180 
	C367.457397,453.771881 376.362335,445.020264 396.803955,442.539734 
	C408.559875,441.113159 420.630615,442.281036 432.859619,442.281036 
	C432.859619,451.717651 432.859619,461.110046 432.859619,470.856049 
	C424.551727,470.856049 416.432739,470.836487 408.313904,470.862610 
	C402.470764,470.881409 399.690155,473.012268 399.616516,477.435883 
	C399.534393,482.368011 402.743652,485.355835 408.305023,485.385559 
	C416.432465,485.429016 424.560333,485.396790 432.918335,485.396790 
	C432.918335,494.910858 432.918335,503.857056 432.918335,513.602966 
	C427.776367,513.602966 422.686218,513.602722 417.596039,513.602966 
	C414.096069,513.603210 410.594421,513.536499 407.096527,513.621765 
	C402.628662,513.730713 399.125519,516.933655 399.075043,520.814514 
	C399.024719,524.686157 402.953186,528.772766 407.077454,528.808533 
	C415.408844,528.880798 423.741821,528.777954 432.542053,528.713928 
z"/>
</svg>