<?xml version="1.0" standalone="no"?>
<!DOCTYPE svg PUBLIC "-//W3C//DTD SVG 20010904//EN"
 "http://www.w3.org/TR/2001/REC-SVG-20010904/DTD/svg10.dtd">
<svg version="1.0" xmlns="http://www.w3.org/2000/svg"
 width="4566.000000pt" height="4566.000000pt" viewBox="0 0 4566.000000 4566.000000"
 preserveAspectRatio="xMidYMid meet">

<g transform="translate(0.000000,4566.000000) scale(0.100000,-0.100000)"
fill="#000000" stroke="none">
<path d="M23390 39000 c-845 -57 -1602 -257 -2317 -610 -120 -59 -279 -142
-353 -185 -176 -101 -416 -258 -402 -263 6 -2 68 17 139 42 692 244 1494 399
2316 447 267 15 945 7 1172 -15 660 -65 1222 -191 1730 -391 209 -82 360 -152
586 -271 2110 -1113 3327 -2623 3503 -4344 53 -513 15 -999 -121 -1545 -66
-268 -238 -772 -317 -930 -8 -16 -44 -95 -81 -175 -37 -80 -106 -219 -153
-310 -48 -91 -90 -173 -94 -183 -10 -24 -158 -275 -210 -357 -23 -36 -96 -151
-163 -255 -478 -747 -1234 -1656 -2145 -2579 -706 -715 -1351 -1307 -2705
-2486 -347 -301 -568 -546 -721 -796 -150 -246 -283 -550 -342 -784 -24 -95
-27 -123 -27 -290 0 -213 9 -259 80 -405 178 -366 660 -595 1395 -665 477 -45
1271 -2 1673 91 73 17 87 24 87 40 0 56 -70 127 -256 258 -387 275 -570 446
-685 646 -150 257 -172 535 -68 850 65 197 225 472 402 693 170 212 294 337
567 576 1441 1259 2521 2429 3347 3626 66 96 134 198 151 225 16 28 80 129
141 225 116 184 209 338 258 430 17 30 83 154 148 275 705 1311 1006 2655 869
3875 -93 834 -394 1640 -882 2361 -757 1121 -1967 2059 -3402 2637 -706 284
-1430 461 -2160 527 -203 19 -774 28 -960 15z"/>
<path d="M22365 38009 c-2020 -95 -3961 -838 -5520 -2114 -334 -273 -737 -655
-1018 -965 -1777 -1960 -2643 -4519 -2421 -7160 160 -1915 916 -3751 2155
-5236 360 -431 841 -907 1284 -1269 1363 -1115 3026 -1829 4778 -2050 1522
-191 3089 -9 4502 526 862 325 1357 554 1875 867 704 425 1254 891 1786 1512
624 729 925 1153 1185 1670 96 191 408 863 415 895 6 24 -5 11 -174 -200 -241
-302 -429 -510 -724 -801 -743 -732 -1564 -1317 -2525 -1797 -296 -148 -484
-232 -492 -220 -3 6 -65 -15 -146 -50 -77 -32 -232 -90 -345 -127 -113 -38
-268 -95 -345 -128 -337 -143 -686 -242 -1092 -312 -67 -11 -178 -34 -245 -50
-526 -125 -1172 -190 -1753 -177 -308 7 -446 17 -735 53 -771 95 -1576 337
-2265 681 -906 452 -1677 1071 -2235 1793 -57 74 -152 196 -210 270 -416 528
-724 1078 -963 1721 -94 252 -215 653 -301 994 -277 1110 -274 2322 9 3420
121 470 288 910 515 1360 447 885 1050 1640 1825 2285 243 202 651 486 919
640 805 460 1888 709 2981 687 510 -11 939 -70 1354 -188 512 -145 910 -355
1200 -634 625 -602 613 -1433 -35 -2397 -247 -366 -660 -841 -1076 -1239 -263
-252 -310 -294 -763 -704 -816 -736 -1254 -1167 -1641 -1616 -316 -365 -649
-815 -902 -1218 -522 -833 -820 -1572 -904 -2241 -19 -156 -17 -518 5 -660
115 -747 550 -1310 1352 -1748 249 -136 546 -260 960 -402 132 -45 266 -94
298 -109 31 -15 57 -26 57 -25 0 1 -39 47 -86 101 -718 818 -816 1596 -307
2435 199 327 468 653 893 1078 259 260 395 388 980 925 674 618 851 788 1615
1551 1060 1057 1414 1446 1865 2046 341 453 583 843 815 1313 275 559 425
1046 497 1615 21 166 18 730 -5 900 -53 397 -156 755 -325 1134 -330 738
-1006 1567 -1681 2065 -305 225 -615 413 -976 591 -451 223 -845 363 -1280
456 -44 9 -85 20 -90 25 -14 11 -311 71 -532 108 -645 109 -1351 151 -2008
120z"/>
<path d="M31300 32193 c0 -33 -45 -379 -66 -508 -272 -1689 -1052 -3207 -2414
-4695 -390 -425 -749 -780 -1505 -1484 -1000 -932 -1386 -1360 -1583 -1758
-191 -386 -189 -735 8 -1065 398 -668 1125 -851 2048 -517 778 282 1618 925
2340 1792 461 554 884 1238 1187 1922 805 1816 900 3786 272 5625 -126 367
-287 753 -287 688z"/>
<path d="M21621 16068 c-109 -12 -286 -57 -381 -97 -373 -155 -610 -474 -691
-927 -30 -166 -37 -474 -15 -640 69 -523 319 -911 961 -1488 392 -352 569
-558 671 -783 123 -270 136 -675 27 -874 -75 -138 -228 -208 -428 -196 -245
15 -374 139 -414 395 -6 39 -11 177 -11 306 l0 236 -420 0 -420 0 0 -240 c0
-133 5 -284 11 -338 72 -664 408 -1050 998 -1148 129 -22 349 -28 485 -15 474
47 802 249 990 611 117 226 176 502 176 824 0 429 -94 759 -309 1083 -150 224
-356 447 -706 760 -540 483 -714 755 -732 1143 -6 139 9 253 46 352 25 66 94
147 155 183 52 31 154 55 232 55 189 0 321 -73 389 -216 46 -97 56 -164 62
-406 l6 -228 418 0 419 0 0 179 c0 524 -107 875 -343 1128 -220 235 -554 356
-970 352 -67 -1 -160 -6 -206 -11z"/>
<path d="M26380 16074 c-335 -40 -572 -136 -760 -310 -118 -109 -232 -288
-293 -459 -34 -94 -73 -278 -86 -397 -7 -64 -11 -656 -11 -1743 0 -1087 4
-1679 11 -1743 62 -575 338 -950 809 -1100 165 -52 270 -66 505 -66 159 0 234
4 310 18 528 95 851 408 968 936 45 201 47 256 47 1315 l0 1005 -640 0 -640 0
0 -405 0 -405 220 0 220 0 0 -602 c-1 -638 -4 -690 -49 -808 -66 -172 -224
-260 -446 -247 -49 3 -113 13 -140 21 -108 33 -193 114 -236 226 -51 132 -50
93 -46 1896 2 1583 4 1682 21 1738 66 219 209 326 436 326 190 0 330 -81 400
-233 50 -106 60 -202 60 -553 l0 -314 420 0 420 0 0 320 c0 349 -8 455 -47
630 -116 526 -443 843 -963 935 -91 16 -411 28 -490 19z"/>
<path d="M33124 16070 c-672 -77 -1063 -486 -1134 -1185 -8 -78 -10 -603 -8
-1795 5 -1850 0 -1713 64 -1949 114 -420 391 -708 797 -825 169 -49 256 -60
487 -60 231 0 318 11 487 60 414 120 690 412 803 848 57 224 55 139 55 2001 0
1386 -3 1736 -13 1805 -98 620 -435 979 -1019 1085 -102 19 -413 28 -519 15z
m316 -810 c168 -32 275 -137 327 -321 17 -61 18 -149 18 -1774 0 -1625 -1
-1713 -18 -1774 -63 -221 -208 -331 -437 -331 -229 0 -374 110 -437 331 -17
61 -18 149 -18 1774 0 1625 1 1713 18 1774 63 220 200 326 428 330 37 1 90 -3
119 -9z"/>
<path d="M4120 13165 l0 -2835 390 0 390 0 0 2145 c0 1423 3 2145 10 2145 6 0
10 -3 10 -7 -1 -5 145 -970 322 -2145 l323 -2138 372 0 373 0 5 23 c5 20 645
4252 645 4263 0 2 5 4 10 4 7 0 10 -722 10 -2145 l0 -2145 420 0 420 0 0 2835
0 2835 -635 0 -635 0 -5 -22 c-3 -13 -131 -925 -285 -2027 -154 -1103 -283
-2007 -285 -2010 -3 -2 -7 -2 -9 0 -2 2 -131 916 -287 2032 l-284 2027 -637 0
-638 0 0 -2835z"/>
<path d="M9325 15978 c-9 -42 -915 -5615 -915 -5632 0 -14 38 -16 409 -16 382
0 410 1 415 18 2 9 39 259 82 555 l78 537 508 0 c279 0 508 -2 508 -4 0 -11
151 -1064 155 -1083 l5 -23 446 0 446 0 -6 28 c-9 45 -916 5620 -916 5631 0 8
-188 11 -605 11 l-605 0 -5 -22z m775 -2348 c106 -751 195 -1377 197 -1392 l6
-28 -403 0 -402 0 5 33 c4 17 90 637 192 1377 102 740 188 1356 191 1369 3 13
9 20 13 15 5 -5 95 -623 201 -1374z"/>
<path d="M11873 15983 c2 -10 221 -629 486 -1376 264 -747 481 -1367 481
-1377 0 -10 -229 -665 -510 -1456 -280 -790 -510 -1438 -510 -1440 0 -3 190
-3 421 -2 l422 3 329 980 c181 539 333 984 338 989 7 7 81 -212 533 -1589
l125 -380 470 -3 471 -2 -28 82 c-16 46 -247 698 -514 1450 l-486 1368 486
1372 c267 755 488 1379 490 1386 4 10 -81 12 -418 10 l-422 -3 -307 -909
c-168 -501 -310 -911 -316 -913 -5 -1 -110 307 -233 685 -124 378 -259 789
-300 915 l-75 227 -469 0 c-442 0 -469 -1 -464 -17z"/>
<path d="M15333 15983 c2 -10 221 -629 486 -1376 264 -747 481 -1367 481
-1377 0 -10 -229 -665 -510 -1456 -280 -790 -510 -1438 -510 -1440 0 -3 190
-3 421 -2 l422 3 329 980 c181 539 333 984 338 989 7 7 81 -212 533 -1589
l125 -380 470 -3 471 -2 -28 82 c-16 46 -247 698 -514 1450 l-486 1368 486
1372 c267 755 488 1379 490 1386 4 10 -81 12 -418 10 l-422 -3 -307 -909
c-168 -501 -310 -911 -316 -913 -5 -1 -110 307 -233 685 -124 378 -259 789
-300 915 l-75 227 -469 0 c-442 0 -469 -1 -464 -17z"/>
<path d="M18970 15570 l0 -430 146 0 c113 0 145 -3 141 -12 -2 -7 -75 -214
-161 -461 -86 -246 -161 -459 -166 -472 l-10 -25 208 0 208 0 247 530 247 530
0 385 0 385 -430 0 -430 0 0 -430z"/>
<path d="M28620 13166 l0 -2836 445 0 445 0 0 1216 0 1216 238 -5 c269 -5 330
-16 426 -80 65 -43 95 -80 135 -167 64 -138 63 -133 71 -1040 8 -892 9 -915
66 -1092 l16 -48 454 0 454 0 -15 37 c-21 49 -51 171 -66 263 -7 50 -14 350
-19 895 -8 883 -9 892 -65 1104 -48 182 -149 350 -268 449 -49 41 -219 132
-245 132 -27 0 -9 20 34 39 118 53 264 177 340 290 92 137 159 338 184 551 8
73 11 226 7 505 -5 421 -9 467 -62 650 -103 354 -337 582 -707 689 -201 58
-225 59 -1080 63 l-788 4 0 -2835z m1416 2013 c176 -32 282 -153 319 -363 21
-126 22 -716 0 -840 -36 -205 -133 -323 -315 -381 -44 -14 -103 -19 -292 -23
l-238 -4 0 811 0 811 233 0 c128 0 260 -5 293 -11z"/>
<path d="M35423 13713 c3 -2068 5 -2297 20 -2380 111 -621 423 -952 1000
-1060 130 -24 484 -24 614 0 149 28 261 64 378 122 341 168 537 465 622 938
15 83 17 312 20 2380 l3 2287 -430 0 -430 0 -3 -2282 c-2 -2171 -3 -2286 -21
-2343 -68 -226 -219 -327 -466 -312 -252 16 -375 142 -410 419 -6 54 -10 838
-10 2300 l0 2218 -445 0 -445 0 3 -2287z"/>
<path d="M38870 13166 l0 -2836 445 0 445 0 0 1154 0 1154 328 5 c254 3 348 8
422 22 502 92 809 365 934 828 58 214 61 247 61 822 0 465 -2 543 -18 637 -48
286 -143 504 -293 675 -115 130 -320 255 -509 308 -211 59 -195 58 -1037 62
l-778 4 0 -2835z m1503 1995 c83 -33 135 -77 173 -146 66 -120 67 -131 72
-639 4 -486 -1 -574 -40 -683 -44 -127 -141 -209 -273 -232 -34 -6 -170 -11
-303 -11 l-242 0 0 871 0 871 278 -4 c260 -4 280 -5 335 -27z"/>
<path d="M18415 8886 l-170 -41 -3 -314 c-2 -293 -3 -313 -20 -306 -113 48
-169 58 -307 59 -159 1 -231 -16 -360 -82 -107 -55 -237 -190 -297 -307 -85
-165 -117 -349 -98 -552 28 -305 147 -503 365 -611 208 -103 519 -90 685 28
l30 21 0 -45 0 -46 180 0 180 0 0 1120 c0 616 -3 1120 -7 1119 -5 -1 -84 -20
-178 -43z m-290 -935 c28 -12 65 -32 82 -44 l33 -22 0 -412 0 -413 -37 -24
c-21 -14 -67 -34 -103 -46 -54 -18 -79 -21 -145 -17 -199 15 -324 99 -385 260
-31 84 -40 298 -16 400 43 182 145 291 311 334 74 19 199 11 260 -16z"/>
<path d="M24725 8886 l-170 -41 -3 -314 c-2 -293 -3 -313 -20 -306 -113 48
-169 58 -307 59 -159 1 -231 -16 -360 -82 -107 -55 -237 -190 -297 -307 -85
-165 -117 -349 -98 -552 28 -305 147 -503 365 -611 208 -103 519 -90 685 28
l30 21 0 -45 0 -46 180 0 180 0 0 1120 c0 616 -3 1120 -7 1119 -5 -1 -84 -20
-178 -43z m-290 -935 c28 -12 65 -32 82 -44 l33 -22 0 -412 0 -413 -37 -24
c-21 -14 -67 -34 -103 -46 -54 -18 -79 -21 -145 -17 -199 15 -324 99 -385 260
-31 84 -40 298 -16 400 43 182 145 291 311 334 74 19 199 11 260 -16z"/>
<path d="M30275 8886 l-170 -42 -3 -945 c-2 -645 1 -964 8 -1008 26 -153 108
-231 243 -231 85 0 162 27 218 78 75 67 77 75 24 106 -53 31 -92 93 -111 175
-11 44 -14 247 -14 984 0 735 -3 927 -12 926 -7 -1 -89 -20 -183 -43z"/>
<path d="M33795 8886 l-170 -42 -3 -1092 -2 -1092 103 0 104 0 38 55 c21 31
41 54 44 53 3 -2 40 -20 81 -41 107 -53 198 -70 340 -64 139 7 218 26 330 79
70 34 100 57 176 132 78 78 98 106 137 186 59 121 86 233 94 386 7 139 -6 249
-42 355 -61 177 -190 326 -357 410 -185 93 -445 103 -616 24 -30 -14 -56 -25
-58 -25 -2 0 -5 161 -6 357 -2 227 -7 357 -13 358 -5 2 -86 -16 -180 -39z
m630 -935 c189 -66 279 -243 261 -511 -19 -293 -120 -423 -355 -460 -140 -22
-233 -6 -313 53 l-28 21 0 422 0 421 38 26 c20 15 62 33 92 42 76 21 225 14
305 -14z"/>
<path d="M35705 8886 l-170 -42 -3 -945 c-2 -645 1 -964 8 -1008 26 -153 108
-231 243 -231 85 0 162 27 218 78 75 67 77 75 24 106 -53 31 -92 93 -111 175
-11 44 -14 247 -14 984 0 735 -3 927 -12 926 -7 -1 -89 -20 -183 -43z"/>
<path d="M26615 8849 c-71 -3 -158 -7 -192 -8 l-63 -1 0 -1075 0 -1075 200 0
200 0 0 451 0 452 68 -6 c37 -4 90 -7 118 -7 l51 0 283 -441 c157 -243 289
-443 295 -445 6 -3 105 -3 221 -2 l211 3 -291 445 c-160 245 -302 462 -314
482 l-23 37 53 27 c158 80 283 236 322 404 20 82 20 214 1 302 -55 262 -256
414 -605 457 -92 12 -328 12 -535 0z m515 -349 c178 -41 244 -117 243 -277 -2
-197 -82 -282 -297 -312 -85 -12 -220 -14 -278 -5 l-38 7 0 298 c0 275 1 298
18 303 27 8 302 -3 352 -14z"/>
<path d="M31212 8849 c-69 -20 -142 -122 -142 -199 0 -109 103 -210 215 -210
95 0 183 68 205 158 39 165 -109 299 -278 251z"/>
<path d="M7820 8670 l0 -170 340 0 340 0 0 -905 0 -905 190 0 190 0 0 905 0
905 360 0 360 0 0 170 0 170 -890 0 -890 0 0 -170z"/>
<path d="M14388 8642 l-178 -67 0 -157 0 -158 -90 0 -90 0 0 -150 0 -150 89 0
90 0 3 -457 c4 -395 7 -466 21 -517 51 -174 171 -283 351 -317 96 -18 332 -6
439 22 l37 10 0 168 0 168 -47 -22 c-90 -42 -207 -56 -288 -34 -50 14 -109 72
-126 124 -10 30 -14 147 -16 448 l-4 407 215 0 216 0 0 150 0 150 -215 0 -215
0 0 225 c0 124 -3 225 -7 224 -5 -1 -88 -31 -185 -67z"/>
<path d="M10224 8276 c-80 -18 -165 -60 -219 -108 -24 -21 -46 -38 -49 -38 -3
0 -6 29 -6 65 l0 65 -180 0 -180 0 0 -785 0 -785 180 0 180 0 0 448 c0 246 5
478 10 517 20 133 98 252 202 307 34 18 59 23 123 23 69 0 89 -4 146 -31 l66
-31 76 153 c42 85 77 156 77 159 0 2 -30 14 -67 26 -88 27 -271 35 -359 15z"/>
<path d="M13102 8279 c-276 -46 -434 -235 -401 -479 14 -99 57 -177 142 -256
62 -58 97 -79 262 -159 210 -103 249 -128 282 -183 34 -55 32 -149 -3 -191
-77 -92 -338 -74 -500 33 l-54 36 -14 -32 c-7 -18 -37 -84 -65 -146 l-51 -113
93 -44 c145 -69 196 -79 387 -79 246 0 374 40 492 156 186 181 162 510 -49
667 -67 50 -144 90 -299 155 -202 85 -248 128 -241 225 3 45 9 59 35 82 54 48
138 60 272 38 67 -10 161 -48 192 -76 20 -18 16 -27 82 150 l45 119 -53 23
c-166 74 -382 102 -554 74z"/>
<path d="M15949 8276 c-81 -17 -170 -52 -247 -97 -77 -46 -218 -189 -265 -269
-125 -215 -147 -554 -53 -804 79 -209 266 -370 493 -423 108 -25 372 -25 493
1 100 21 213 66 270 107 l40 29 -71 141 -71 140 -34 -31 c-106 -92 -303 -132
-477 -95 -172 36 -290 162 -313 334 l-7 51 561 0 561 0 13 58 c18 82 16 263
-5 342 -50 191 -189 366 -357 447 -47 23 -114 49 -150 58 -89 22 -297 28 -381
11z m326 -312 c101 -35 188 -152 210 -281 l7 -43 -386 0 c-212 0 -386 2 -386
3 0 12 41 120 59 155 45 87 123 151 220 179 60 17 210 10 276 -13z"/>
<path d="M20328 8275 c-86 -14 -223 -56 -240 -73 -7 -7 52 -246 68 -273 2 -4
32 4 67 16 133 49 340 57 454 20 98 -33 158 -106 170 -206 l6 -49 -34 7 c-63
14 -299 8 -389 -11 -213 -44 -373 -148 -453 -293 -85 -157 -79 -407 14 -546
86 -130 258 -207 462 -207 149 1 316 59 396 139 23 23 43 41 45 41 2 0 6 -10
10 -23 9 -37 82 -113 129 -136 86 -42 223 -19 276 47 17 20 31 40 31 45 0 5
-16 27 -35 49 -69 82 -85 178 -85 543 0 368 -17 497 -86 642 -61 129 -168 209
-341 254 -103 27 -341 34 -465 14z m511 -841 l24 -7 -7 -117 c-8 -149 -26
-209 -77 -265 -52 -56 -122 -86 -219 -92 -146 -10 -243 41 -269 141 -15 60
-14 92 5 157 29 96 122 163 267 189 55 10 236 6 276 -6z"/>
<path d="M22311 8275 c-87 -19 -181 -65 -236 -116 -25 -23 -47 -40 -49 -38 -1
2 -17 34 -34 72 l-31 67 -130 0 -131 0 0 -785 0 -785 180 0 180 0 0 569 0 569
42 41 c22 23 75 58 117 79 72 35 82 37 171 37 169 -1 252 -59 298 -210 13 -41
16 -141 19 -567 l4 -518 180 0 179 0 0 535 c0 599 -3 630 -66 763 -69 144
-212 252 -379 287 -87 18 -229 18 -314 0z"/>
<path d="M28759 8276 c-81 -17 -170 -52 -247 -97 -77 -46 -218 -189 -265 -269
-125 -215 -147 -554 -53 -804 79 -209 266 -370 493 -423 108 -25 372 -25 493
1 100 21 213 66 270 107 l40 29 -71 141 -71 140 -34 -31 c-106 -92 -303 -132
-477 -95 -172 36 -290 162 -313 334 l-7 51 561 0 561 0 13 58 c18 82 16 263
-5 342 -50 191 -189 366 -357 447 -47 23 -114 49 -150 58 -89 22 -297 28 -381
11z m326 -312 c101 -35 188 -152 210 -281 l7 -43 -386 0 c-212 0 -386 2 -386
3 0 12 41 120 59 155 45 87 123 151 220 179 60 17 210 10 276 -13z"/>
<path d="M32278 8275 c-86 -14 -223 -56 -240 -73 -7 -7 52 -246 68 -273 2 -4
32 4 67 16 133 49 340 57 454 20 98 -33 158 -106 170 -206 l6 -49 -34 7 c-63
14 -299 8 -389 -11 -213 -44 -373 -148 -453 -293 -85 -157 -79 -407 14 -546
86 -130 258 -207 462 -207 149 1 316 59 396 139 23 23 43 41 45 41 2 0 6 -10
10 -23 9 -37 82 -113 129 -136 86 -42 223 -19 276 47 17 20 31 40 31 45 0 5
-16 27 -35 49 -69 82 -85 178 -85 543 0 368 -17 497 -86 642 -61 129 -168 209
-341 254 -103 27 -341 34 -465 14z m511 -841 l24 -7 -7 -117 c-8 -149 -26
-209 -77 -265 -52 -56 -122 -86 -219 -92 -146 -10 -243 41 -269 141 -15 60
-14 92 5 157 29 96 122 163 267 189 55 10 236 6 276 -6z"/>
<path d="M36949 8276 c-81 -17 -170 -52 -247 -97 -77 -46 -218 -189 -265 -269
-125 -215 -147 -554 -53 -804 79 -209 266 -370 493 -423 108 -25 372 -25 493
1 100 21 213 66 270 107 l40 29 -71 141 -71 140 -34 -31 c-106 -92 -303 -132
-477 -95 -172 36 -290 162 -313 334 l-7 51 561 0 561 0 13 58 c18 82 16 263
-5 342 -50 191 -189 366 -357 447 -47 23 -114 49 -150 58 -89 22 -297 28 -381
11z m326 -312 c101 -35 188 -152 210 -281 l7 -43 -386 0 c-212 0 -386 2 -386
3 0 12 41 120 59 155 45 87 123 151 220 179 60 17 210 10 276 -13z"/>
<path d="M10952 7663 l3 -598 28 -80 c70 -204 218 -308 457 -322 155 -9 354
44 474 126 l46 32 0 -66 0 -65 185 0 185 0 0 785 0 785 -185 0 -185 0 0 -540
c0 -447 -2 -546 -14 -568 -20 -38 -105 -116 -154 -141 -144 -74 -318 -65 -402
19 -73 73 -74 75 -78 688 l-3 542 -180 0 -180 0 3 -597z"/>
<path d="M30890 8110 l0 -150 105 0 105 0 0 -635 0 -635 185 0 185 0 0 785 0
785 -290 0 -290 0 0 -150z"/>
</g>
</svg>
